<svg width="51" height="51" viewBox="0 0 51 51" fill="none" xmlns="http://www.w3.org/2000/svg">
    <path d="M3.3472 7.11617C3.3472 4.78341 5.23828 2.89233 7.57104 2.89233C9.9038 2.89233 11.7949 4.78341 11.7949 7.11618V44.2252C11.7949 46.558 9.9038 48.4491 7.57104 48.4491C5.23828 48.4491 3.3472 46.558 3.3472 44.2252V7.11617Z" fill="#041189"/>
    <path d="M4.33209 9.50065C3.07057 8.10564 3.04867 5.95477 4.28151 4.53249C5.86792 2.46881 8.8551 2.29354 10.6595 4.15825L45.9797 40.659C47.6773 42.4133 47.8255 45.1948 46.3245 47.1293C44.6429 48.8306 41.9373 48.8136 40.2767 47.0915L22.1738 28.3174L12.0887 18.0781L4.33209 9.50065Z" fill="url(#paint0_linear)"/>
    <path d="M43.208 39.5451C45.6934 39.507 47.7287 41.5113 47.7287 43.997C47.7286 46.4559 45.7354 48.4491 43.2765 48.4491L25.5377 48.4491L7.57437 48.4491C5.52493 48.4491 3.7779 46.9629 3.44945 44.9399C3.04091 42.4236 4.96115 40.131 7.51011 40.092L43.208 39.5451Z" fill="#5B1D9F"/>
    <path d="M40.4612 4.14135C41.9018 2.66269 44.1579 2.43229 45.8512 3.59091C46.582 4.09089 47.1454 4.81281 47.4629 5.65338C48.0784 7.28277 47.7 9.138 46.4949 10.3748L10.6596 47.1558C8.85399 49.009 5.88165 48.8418 4.28843 46.7973C2.92623 45.0493 3.06356 42.5281 4.60727 40.9435L40.4612 4.14135Z" fill="url(#paint1_linear)"/>
    <path d="M39.2813 7.11617C39.2813 4.78341 41.1724 2.89233 43.5052 2.89233C45.8379 2.89233 47.729 4.78341 47.729 7.11618V44.2252C47.729 46.558 45.8379 48.4491 43.5052 48.4491C41.1724 48.4491 39.2813 46.558 39.2813 44.2252V7.11617Z" fill="url(#paint2_linear)"/>
    <defs>
        <linearGradient id="paint0_linear" x1="4.24678" y1="3.72549" x2="47.3705" y2="46.0639" gradientUnits="userSpaceOnUse">
            <stop stop-color="#281692"/>
            <stop offset="1" stop-color="#451A9A"/>
        </linearGradient>
        <linearGradient id="paint1_linear" x1="47.0927" y1="4.4862" x2="2.8013" y2="45.838" gradientUnits="userSpaceOnUse">
            <stop stop-color="#A027B3"/>
            <stop offset="1" stop-color="#521B9D"/>
        </linearGradient>
        <linearGradient id="paint2_linear" x1="43.5052" y1="2.89233" x2="43.5052" y2="48.4491" gradientUnits="userSpaceOnUse">
            <stop stop-color="#9E26B1"/>
            <stop offset="1" stop-color="#DF4FF5"/>
        </linearGradient>
    </defs>
</svg>
